<svg width="161" height="30" viewBox="0 0 161 30" fill="none" xmlns="http://www.w3.org/2000/svg">
<rect y="5" width="20" height="20" rx="4" fill="#EA7453"/>
<circle cx="3.99927" cy="16.5002" r="1.75" fill="#0A060A"/>
<circle cx="15.9985" cy="16.5002" r="1.75" fill="#0A060A"/>
<ellipse cx="9.99976" cy="18.2498" rx="1.75" ry="1.25" fill="white"/>
<path d="M35.475 21.5L35.6 15.825L41.125 10.45L46.75 10.45L40.625 16.775L38.2 18.725L35.475 21.5ZM31.525 24V5.45H36.275V24H31.525ZM41.475 24L37.325 18.8L40.275 15.15L47.225 24H41.475ZM55.4637 24.225C53.9803 24.225 52.6637 23.925 51.5137 23.325C50.3637 22.725 49.4553 21.9 48.7887 20.85C48.1387 19.7833 47.8137 18.5667 47.8137 17.2C47.8137 15.8333 48.1387 14.625 48.7887 13.575C49.4553 12.525 50.3637 11.7083 51.5137 11.125C52.6637 10.525 53.9803 10.225 55.4637 10.225C56.947 10.225 58.2637 10.525 59.4137 11.125C60.5803 11.7083 61.4887 12.525 62.1387 13.575C62.7887 14.625 63.1137 15.8333 63.1137 17.2C63.1137 18.5667 62.7887 19.7833 62.1387 20.85C61.4887 21.9 60.5803 22.725 59.4137 23.325C58.2637 23.925 56.947 24.225 55.4637 24.225ZM55.4637 20.45C56.0137 20.45 56.497 20.325 56.9137 20.075C57.347 19.825 57.6887 19.4583 57.9387 18.975C58.1887 18.475 58.3137 17.8833 58.3137 17.2C58.3137 16.5167 58.1887 15.9417 57.9387 15.475C57.6887 14.9917 57.347 14.625 56.9137 14.375C56.497 14.125 56.0137 14 55.4637 14C54.9303 14 54.447 14.125 54.0137 14.375C53.597 14.625 53.2553 14.9917 52.9887 15.475C52.7387 15.9417 52.6137 16.5167 52.6137 17.2C52.6137 17.8833 52.7387 18.475 52.9887 18.975C53.2553 19.4583 53.597 19.825 54.0137 20.075C54.447 20.325 54.9303 20.45 55.4637 20.45ZM71.3641 24.225C69.6307 24.225 68.2807 23.8 67.3141 22.95C66.3474 22.0833 65.8641 20.7833 65.8641 19.05V7.425L70.6141 7.425V19C70.6141 19.4833 70.7474 19.8667 71.0141 20.15C71.2807 20.4167 71.6224 20.55 72.0391 20.55C72.6057 20.55 73.0891 20.4083 73.4891 20.125L74.6641 23.45C74.2641 23.7167 73.7724 23.9083 73.1891 24.025C72.6057 24.1583 71.9974 24.225 71.3641 24.225ZM63.8891 14.5V10.95H73.7141V14.5H63.8891Z" fill="black"/>
<path d="M92.2961 24.225C91.0794 24.225 90.0628 23.975 89.2461 23.475C88.4461 22.975 87.8461 22.2083 87.4461 21.175C87.0461 20.1417 86.8461 18.8167 86.8461 17.2C86.8461 15.6167 87.0544 14.3083 87.4711 13.275C87.9044 12.2417 88.5294 11.475 89.3461 10.975C90.1628 10.475 91.1461 10.225 92.2961 10.225C93.5294 10.225 94.6461 10.5083 95.6461 11.075C96.6628 11.6417 97.4628 12.45 98.0461 13.5C98.6461 14.5333 98.9461 15.7667 98.9461 17.2C98.9461 18.65 98.6461 19.9 98.0461 20.95C97.4628 21.9833 96.6628 22.7917 95.6461 23.375C94.6461 23.9417 93.5294 24.225 92.2961 24.225ZM83.7711 24V5.45L88.5211 5.45V12.725L88.2711 17.2L88.2961 21.675V24H83.7711ZM91.2961 20.45C91.8294 20.45 92.3044 20.325 92.7211 20.075C93.1544 19.825 93.4961 19.4583 93.7461 18.975C94.0128 18.475 94.1461 17.8833 94.1461 17.2C94.1461 16.5167 94.0128 15.9417 93.7461 15.475C93.4961 14.9917 93.1544 14.625 92.7211 14.375C92.3044 14.125 91.8294 14 91.2961 14C90.7628 14 90.2794 14.125 89.8461 14.375C89.4294 14.625 89.0878 14.9917 88.8211 15.475C88.5711 15.9417 88.4461 16.5167 88.4461 17.2C88.4461 17.8833 88.5711 18.475 88.8211 18.975C89.0878 19.4583 89.4294 19.825 89.8461 20.075C90.2794 20.325 90.7628 20.45 91.2961 20.45ZM109.429 24V21.475L109.104 20.85V16.2C109.104 15.45 108.871 14.875 108.404 14.475C107.954 14.0583 107.229 13.85 106.229 13.85C105.579 13.85 104.921 13.9583 104.254 14.175C103.587 14.375 103.021 14.6583 102.554 15.025L100.954 11.8C101.721 11.3 102.637 10.9167 103.704 10.65C104.787 10.3667 105.862 10.225 106.929 10.225C109.129 10.225 110.829 10.7333 112.029 11.75C113.246 12.75 113.854 14.325 113.854 16.475V24H109.429ZM105.429 24.225C104.346 24.225 103.429 24.0417 102.679 23.675C101.929 23.3083 101.354 22.8083 100.954 22.175C100.571 21.5417 100.379 20.8333 100.379 20.05C100.379 19.2167 100.587 18.5 101.004 17.9C101.437 17.2833 102.096 16.8167 102.979 16.5C103.862 16.1667 105.004 16 106.404 16H109.604V18.475H107.054C106.287 18.475 105.746 18.6 105.429 18.85C105.129 19.1 104.979 19.4333 104.979 19.85C104.979 20.2667 105.137 20.6 105.454 20.85C105.771 21.1 106.204 21.225 106.754 21.225C107.271 21.225 107.737 21.1 108.154 20.85C108.587 20.5833 108.904 20.1833 109.104 19.65L109.754 21.4C109.504 22.3333 109.012 23.0417 108.279 23.525C107.562 23.9917 106.612 24.225 105.429 24.225ZM122.902 24.225C121.169 24.225 119.819 23.8 118.852 22.95C117.885 22.0833 117.402 20.7833 117.402 19.05V7.425L122.152 7.425V19C122.152 19.4833 122.285 19.8667 122.552 20.15C122.819 20.4167 123.16 20.55 123.577 20.55C124.144 20.55 124.627 20.4083 125.027 20.125L126.202 23.45C125.802 23.7167 125.31 23.9083 124.727 24.025C124.144 24.1583 123.535 24.225 122.902 24.225ZM115.427 14.5V10.95H125.252V14.5H115.427ZM134.443 24.225C132.96 24.225 131.643 23.925 130.493 23.325C129.343 22.725 128.435 21.9 127.768 20.85C127.118 19.7833 126.793 18.5667 126.793 17.2C126.793 15.8333 127.118 14.625 127.768 13.575C128.435 12.525 129.343 11.7083 130.493 11.125C131.643 10.525 132.96 10.225 134.443 10.225C135.926 10.225 137.243 10.525 138.393 11.125C139.56 11.7083 140.468 12.525 141.118 13.575C141.768 14.625 142.093 15.8333 142.093 17.2C142.093 18.5667 141.768 19.7833 141.118 20.85C140.468 21.9 139.56 22.725 138.393 23.325C137.243 23.925 135.926 24.225 134.443 24.225ZM134.443 20.45C134.993 20.45 135.476 20.325 135.893 20.075C136.326 19.825 136.668 19.4583 136.918 18.975C137.168 18.475 137.293 17.8833 137.293 17.2C137.293 16.5167 137.168 15.9417 136.918 15.475C136.668 14.9917 136.326 14.625 135.893 14.375C135.476 14.125 134.993 14 134.443 14C133.91 14 133.426 14.125 132.993 14.375C132.576 14.625 132.235 14.9917 131.968 15.475C131.718 15.9417 131.593 16.5167 131.593 17.2C131.593 17.8833 131.718 18.475 131.968 18.975C132.235 19.4583 132.576 19.825 132.993 20.075C133.426 20.325 133.91 20.45 134.443 20.45ZM153.119 10.225C154.169 10.225 155.119 10.4417 155.969 10.875C156.819 11.2917 157.485 11.9417 157.969 12.825C158.469 13.7083 158.719 14.85 158.719 16.25V24H153.969V17.025C153.969 16.0583 153.769 15.3583 153.369 14.925C152.985 14.475 152.444 14.25 151.744 14.25C151.244 14.25 150.785 14.3667 150.369 14.6C149.952 14.8167 149.627 15.1583 149.394 15.625C149.16 16.0917 149.044 16.7 149.044 17.45V24H144.294V10.45H148.819V14.3L147.944 13.175C148.46 12.1917 149.169 11.4583 150.069 10.975C150.969 10.475 151.985 10.225 153.119 10.225Z" fill="white"/>
</svg>
